<svg width="368" height="357" viewBox="0 0 368 357" fill="none" xmlns="http://www.w3.org/2000/svg">
<path d="M184 356.879C285.62 356.879 368 309.317 368 250.646C368 191.975 285.62 144.413 184 144.413C82.3796 144.413 0 191.975 0 250.646C0 309.317 82.3796 356.879 184 356.879Z" fill="#F0F0F0"/>
<path d="M289.67 287.507C277.605 280.541 277.605 269.248 289.67 262.282C301.736 255.316 321.299 255.316 333.365 262.282C345.43 269.248 345.43 280.541 333.365 287.507C321.299 294.473 301.736 294.473 289.67 287.507Z" fill="#E0E0E0"/>
<path d="M44.2642 288.475L12.5263 270.154C10.738 269.123 10.738 267.444 12.5263 266.413L197.135 159.829C198.139 159.321 199.248 159.056 200.373 159.056C201.497 159.056 202.606 159.321 203.61 159.829L235.355 178.15C237.144 179.181 237.144 180.86 235.355 181.891L50.7461 288.475C49.7414 288.984 48.6312 289.249 47.5052 289.249C46.3791 289.249 45.2689 288.984 44.2642 288.475Z" fill="#E0E0E0"/>
<path d="M158.346 255.816L185.632 240.04C188.444 238.416 189.849 236.292 189.849 234.16C189.849 232.028 189.849 230.364 189.849 230.364L161.548 214.402C160.757 213.891 160.099 213.2 159.626 212.385C159.154 211.571 158.881 210.656 158.83 209.716V176.065L111.192 203.601V237.237C111.247 238.176 111.521 239.089 111.993 239.903C112.465 240.717 113.122 241.409 113.91 241.923L137.994 255.792C143.601 259.064 152.723 259.064 158.346 255.816Z" fill="#18B2DE"/>
<g opacity="0.6">
<path d="M158.346 255.816L185.632 240.04C188.444 238.416 189.849 236.292 189.849 234.16C189.849 232.028 189.849 230.364 189.849 230.364L161.548 214.402C160.757 213.891 160.099 213.2 159.626 212.385C159.154 211.571 158.881 210.656 158.83 209.716V176.065L111.192 203.601V237.237C111.247 238.176 111.521 239.089 111.993 239.903C112.465 240.717 113.122 241.409 113.91 241.923L137.994 255.792C143.601 259.064 152.723 259.064 158.346 255.816Z" fill="black"/>
</g>
<path opacity="0.3" d="M122.617 243.196V246.976L113.886 241.938C113.098 241.425 112.443 240.733 111.972 239.919C111.501 239.105 111.228 238.192 111.176 237.253V203.602L120.251 198.361C120.438 200.665 120.641 203.047 120.837 205.39L114.456 209.06V235.339C114.507 236.28 114.779 237.194 115.252 238.009C115.724 238.823 116.383 239.514 117.174 240.025L122.617 243.196Z" fill="black"/>
<path d="M114.457 235.347C114.51 236.287 114.784 237.2 115.256 238.014C115.728 238.828 116.385 239.52 117.174 240.033L137.963 252.013C143.586 255.254 152.708 255.261 158.338 252.013L185.672 236.237C191.302 232.989 191.302 227.725 185.672 224.476L164.867 212.496C164.08 211.982 163.425 211.29 162.954 210.476C162.483 209.662 162.21 208.749 162.157 207.811V181.524L114.519 209.06L114.457 235.347Z" fill="#18B2DE"/>
<path opacity="0.3" d="M114.457 235.347C114.51 236.287 114.784 237.2 115.256 238.014C115.728 238.828 116.385 239.52 117.174 240.033L137.963 252.013C143.586 255.254 152.708 255.261 158.338 252.013L185.672 236.237C191.302 232.989 191.302 227.725 185.672 224.476L164.867 212.496C164.08 211.982 163.425 211.29 162.954 210.476C162.483 209.662 162.21 208.749 162.157 207.811V181.524L114.519 209.06L114.457 235.347Z" fill="black"/>
<path opacity="0.5" d="M170.373 215.706L164.836 212.512C164.049 211.998 163.394 211.306 162.923 210.492C162.452 209.678 162.179 208.765 162.126 207.826V181.524L114.488 209.06V235.347C114.541 236.287 114.815 237.2 115.288 238.014C115.76 238.828 116.417 239.52 117.206 240.033L122.672 243.157L170.373 215.706Z" fill="black"/>
<path d="M189.857 230.372V234.168C189.857 236.3 188.444 238.416 185.64 240.048L158.307 255.816C155.316 257.412 151.975 258.242 148.584 258.229V254.449C151.975 254.462 155.316 253.633 158.307 252.036L185.64 236.253C188.444 234.636 189.857 232.504 189.857 230.372Z" fill="#18B2DE"/>
<path opacity="0.5" d="M189.857 230.372V234.168C189.857 236.3 188.444 238.416 185.64 240.048L158.307 255.816C155.316 257.412 151.975 258.242 148.584 258.229V254.449C151.975 254.462 155.316 253.633 158.307 252.036L185.64 236.253C188.444 234.636 189.857 232.504 189.857 230.372Z" fill="black"/>
<path d="M37.9231 268.014C38.953 268.512 40.0853 268.76 41.2288 268.74C42.3723 268.72 43.495 268.431 44.5065 267.897L228.811 161.492C229.799 160.848 230.622 159.98 231.212 158.958C231.802 157.936 232.144 156.79 232.208 155.612V6.51264C232.173 5.36649 231.867 4.2449 231.316 3.23927C230.765 2.23363 229.985 1.37241 229.038 0.725787C228.009 0.227817 226.877 -0.0204007 225.735 0.00131111C224.592 0.0230229 223.471 0.314052 222.462 0.850739L38.1574 107.287C37.1726 107.935 36.3551 108.807 35.7715 109.832C35.1879 110.857 34.8548 112.005 34.7993 113.183V262.259C34.8342 263.395 35.1349 264.508 35.6774 265.508C36.2198 266.507 36.989 267.366 37.9231 268.014Z" fill="#18B2DE"/>
<path d="M44.53 267.889L228.835 161.485C229.824 160.842 230.648 159.974 231.238 158.952C231.828 157.93 232.169 156.783 232.232 155.604V6.51272C232.232 4.34948 230.709 3.46701 228.835 4.55253L44.53 110.957C43.5413 111.601 42.7184 112.469 42.1282 113.491C41.5379 114.513 41.1969 115.66 41.1328 116.838V265.929C41.1328 268.092 42.6557 268.975 44.53 267.889Z" fill="#18B2DE"/>
<path opacity="0.5" d="M44.53 267.889L228.835 161.485C229.824 160.842 230.648 159.974 231.238 158.952C231.828 157.93 232.169 156.783 232.232 155.604V6.51272C232.232 4.34948 230.709 3.46701 228.835 4.55253L44.53 110.957C43.5413 111.601 42.7184 112.469 42.1282 113.491C41.5379 114.513 41.1969 115.66 41.1328 116.838V265.929C41.1328 268.092 42.6557 268.975 44.53 267.889Z" fill="black"/>
<path d="M44.0302 271.763C43.0637 272.185 42.0172 272.392 40.9629 272.37C39.9086 272.349 38.8715 272.099 37.9231 271.638C36.9869 270.988 36.2165 270.127 35.6739 269.124C35.1313 268.122 34.8317 267.006 34.7993 265.867V252.294L41.1641 255.98V269.553C41.125 271.529 42.3824 272.427 44.0302 271.763Z" fill="#18B2DE"/>
<path opacity="0.5" d="M44.0302 271.763C43.0637 272.185 42.0172 272.392 40.9629 272.37C39.9086 272.349 38.8715 272.099 37.9231 271.638C36.9869 270.988 36.2165 270.127 35.6739 269.124C35.1313 268.122 34.8317 267.006 34.7993 265.867V252.294L41.1641 255.98V269.553C41.125 271.529 42.3824 272.427 44.0302 271.763Z" fill="black"/>
<path d="M41.125 255.98V269.553C41.125 271.716 42.6869 272.591 44.5221 271.513L228.827 165.108C229.811 164.467 230.631 163.603 231.221 162.588C231.811 161.572 232.154 160.432 232.224 159.259V145.624L41.125 255.98Z" fill="#18B2DE"/>
<path opacity="0.3" d="M41.1328 255.949V269.553C41.1328 271.716 42.6947 272.591 44.53 271.513L228.835 165.108C229.817 164.466 230.636 163.602 231.224 162.586C231.813 161.571 232.155 160.431 232.224 159.259V145.624L41.1328 255.949Z" fill="black"/>
<path d="M47.4976 238.916V118.954C47.5339 118.247 47.7368 117.559 48.0897 116.946C48.4425 116.332 48.9354 115.811 49.528 115.424L223.79 14.783C224.914 14.1348 225.828 14.658 225.828 15.9544V135.979C225.79 136.686 225.586 137.375 225.231 137.988C224.877 138.601 224.383 139.122 223.79 139.509L49.5358 240.127C48.4113 240.775 47.4976 240.244 47.4976 238.916Z" fill="#18B2DE"/>
<path d="M47.4976 238.916V118.954C47.5339 118.247 47.7368 117.559 48.0897 116.946C48.4425 116.332 48.9354 115.811 49.528 115.424L223.79 14.783C224.914 14.1348 225.828 14.658 225.828 15.9544V135.979C225.79 136.686 225.586 137.375 225.231 137.988C224.877 138.601 224.383 139.122 223.79 139.509L49.5358 240.127C48.4113 240.775 47.4976 240.244 47.4976 238.916Z" fill="#263238"/>
<path d="M136.675 205.124C135.747 205.728 134.975 206.541 134.421 207.499C133.868 208.457 133.548 209.533 133.488 210.638C133.488 212.668 134.917 213.496 136.675 212.481C137.603 211.877 138.376 211.062 138.93 210.102C139.483 209.143 139.802 208.066 139.861 206.959C139.861 204.929 138.432 204.109 136.675 205.124Z" fill="#18B2DE"/>
<path opacity="0.7" d="M42.1325 113.48C41.5272 114.497 41.1813 115.647 41.125 116.83V255.98L34.7993 252.294V113.183C34.8403 111.996 35.1844 110.84 35.7989 109.825L42.1325 113.48Z" fill="black"/>
<path opacity="0.3" d="M232.193 5.95045C231.95 4.20112 230.537 3.6076 228.827 4.55255L44.522 110.957C43.5228 111.582 42.698 112.45 42.1245 113.48L35.752 109.801C36.3292 108.772 37.1564 107.904 38.1573 107.279L222.462 0.882075C223.472 0.345313 224.595 0.0542708 225.739 0.0325608C226.882 0.0108509 228.015 0.259085 229.045 0.757123C229.911 1.34702 230.64 2.11594 231.183 3.0119C231.726 3.90786 232.07 4.90996 232.193 5.95045Z" fill="black"/>
<path d="M242.134 24.3027C241.86 24.1653 241.554 24.1051 241.249 24.1285C240.943 24.1518 240.65 24.258 240.4 24.4354L66.498 124.897C65.8118 125.351 65.2422 125.96 64.8351 126.675C64.4281 127.39 64.1952 128.191 64.1552 129.013V248.241C64.1308 248.643 64.2107 249.045 64.3872 249.408C64.5637 249.77 64.8308 250.081 65.1626 250.31C65.5453 250.521 67.5913 251.708 68.2005 252.036C68.416 252.146 68.6568 252.196 68.8983 252.183C69.1398 252.169 69.3733 252.091 69.575 251.958L243.438 151.496C244.124 151.042 244.694 150.433 245.101 149.718C245.508 149.003 245.741 148.202 245.781 147.381V27.5358C245.816 27.233 245.766 26.9264 245.636 26.6505C245.506 26.3746 245.302 26.1403 245.047 25.9739C244.656 25.7162 242.571 24.5604 242.134 24.3027Z" fill="#18B2DE"/>
<path d="M69.5357 126.584L243.446 26.1613C244.758 25.3804 245.789 26.0207 245.789 27.5358V147.381C245.749 148.202 245.516 149.003 245.109 149.718C244.702 150.433 244.132 151.042 243.446 151.496L69.5357 251.958C68.2237 252.739 67.1929 251.481 67.1929 249.966V130.699C67.2341 129.878 67.4676 129.078 67.8745 128.363C68.2814 127.648 68.8504 127.039 69.5357 126.584Z" fill="#FAFAFA"/>
<path d="M244.508 26.6142C244.969 26.6142 245.039 27.1921 245.039 27.5357V147.381C244.997 148.069 244.795 148.737 244.449 149.334C244.104 149.93 243.624 150.438 243.048 150.817L69.1609 251.278C69.0442 251.354 68.9094 251.397 68.7704 251.403C68.3331 251.403 67.9894 250.732 67.9894 249.966V130.699C68.0271 130.012 68.2229 129.342 68.5615 128.742C68.9001 128.142 69.3724 127.628 69.9418 127.24L243.836 26.8329C244.037 26.703 244.269 26.6277 244.508 26.6142ZM244.508 25.8333C244.132 25.8493 243.766 25.9623 243.446 26.1613L69.5357 126.584C68.8504 127.039 68.2814 127.648 67.8745 128.363C67.4676 129.078 67.2341 129.878 67.1929 130.699V249.966C67.1929 251.169 67.8645 252.184 68.7548 252.184C69.0305 252.179 69.3 252.101 69.5357 251.958L243.438 151.496C244.124 151.042 244.694 150.433 245.101 149.718C245.508 149.003 245.741 148.202 245.781 147.381V27.5357C245.781 26.458 245.25 25.8333 244.469 25.8333H244.508Z" fill="#E0E0E0"/>
<path d="M65.1155 250.31C65.3733 250.443 67.2241 251.497 68.0363 251.966C67.7447 251.724 67.5137 251.417 67.3618 251.07C67.2099 250.723 67.1414 250.345 67.1616 249.966V138.486L64.1159 136.705V248.241C64.0907 248.642 64.1694 249.044 64.3445 249.406C64.5196 249.769 64.7852 250.08 65.1155 250.31Z" fill="#F0F0F0"/>
<path d="M245.82 27.5124C245.82 26.0129 244.75 25.4038 243.477 26.1613L69.5357 126.584C68.8504 127.039 68.2814 127.648 67.8745 128.363C67.4676 129.078 67.2341 129.878 67.1929 130.699V138.509L245.82 35.3219V27.5124Z" fill="#18B2DE"/>
<g opacity="0.4">
<path d="M243.446 26.1613L69.5358 126.576C68.8378 127.016 68.2628 127.626 67.8646 128.349L64.8423 126.592C65.2399 125.894 65.81 125.311 66.4979 124.897L240.4 24.4354C240.649 24.2567 240.942 24.1492 241.248 24.1244C241.553 24.0996 241.859 24.1586 242.134 24.2948C242.556 24.5603 244.531 25.6771 245.039 25.9504C244.776 25.8531 244.494 25.8214 244.216 25.8581C243.939 25.8949 243.674 25.9989 243.446 26.1613Z" fill="white"/>
</g>
<path opacity="0.15" d="M64.1157 136.713V128.973C64.1478 128.13 64.398 127.309 64.842 126.592L67.8721 128.341C67.4345 129.046 67.1895 129.854 67.1614 130.684V138.493L64.1157 136.713Z" fill="black"/>
<path d="M209.147 117.416L104.991 177.549C104.485 177.878 104.063 178.321 103.76 178.844C103.458 179.366 103.283 179.953 103.25 180.555V210.419C103.283 211.022 103.458 211.609 103.76 212.131C104.063 212.653 104.485 213.097 104.991 213.426L108.029 215.175C108.569 215.448 109.165 215.591 109.77 215.591C110.376 215.591 110.972 215.448 111.512 215.175L215.652 155.042C216.159 154.711 216.58 154.266 216.883 153.743C217.185 153.219 217.36 152.631 217.393 152.027V122.156C217.36 121.553 217.185 120.966 216.883 120.444C216.58 119.922 216.158 119.478 215.652 119.149L212.606 117.4C212.069 117.131 211.475 116.993 210.874 116.995C210.274 116.998 209.682 117.142 209.147 117.416Z" fill="#18B2DE"/>
<path opacity="0.5" d="M217.393 121.89C217.268 120.992 216.542 120.664 215.667 121.172L111.512 181.305C110.998 181.624 110.576 182.071 110.286 182.602L103.765 178.837C104.057 178.315 104.476 177.875 104.983 177.557L209.146 117.423C209.685 117.15 210.28 117.007 210.884 117.007C211.488 117.007 212.083 117.15 212.621 117.423L215.667 119.173C216.132 119.477 216.526 119.877 216.823 120.345C217.121 120.814 217.315 121.341 217.393 121.89Z" fill="white"/>
<path d="M111.215 215.323C110.705 215.524 110.159 215.616 109.611 215.592C109.063 215.567 108.527 215.428 108.037 215.183L104.991 213.434C104.485 213.104 104.064 212.66 103.762 212.138C103.459 211.616 103.284 211.029 103.25 210.427V180.563C103.273 179.954 103.45 179.36 103.765 178.837L110.286 182.602C109.969 183.117 109.791 183.707 109.77 184.312V214.183C109.77 215.175 110.395 215.636 111.215 215.323Z" fill="#263238"/>
<path d="M111.512 181.305L215.668 121.172C216.628 120.618 217.409 121.063 217.409 122.172V152.043C217.376 152.647 217.201 153.235 216.898 153.758C216.596 154.282 216.174 154.727 215.668 155.057L111.528 215.191C110.567 215.745 109.786 215.292 109.786 214.183V184.32C109.817 183.717 109.99 183.13 110.29 182.607C110.59 182.083 111.008 181.637 111.512 181.305Z" fill="#18B2DE"/>
<path d="M181.532 133.363L104.999 177.557C104.491 177.875 104.073 178.315 103.78 178.837L110.301 182.602C110.591 182.071 111.014 181.624 111.527 181.305L188.061 137.119L181.532 133.363Z" fill="#455A64"/>
<path d="M188.045 137.119L111.512 181.305C111.005 181.635 110.584 182.081 110.281 182.604C109.979 183.128 109.804 183.716 109.771 184.32V214.175C109.771 215.284 110.551 215.737 111.512 215.183L188.045 170.997V137.119Z" fill="#37474F"/>
<path d="M129.161 177.666L168.654 154.87C170.286 153.925 171.614 154.597 171.614 156.369C171.541 157.365 171.234 158.329 170.719 159.184C170.203 160.039 169.493 160.76 168.646 161.289L129.161 184.093C127.529 185.038 126.194 184.367 126.194 182.594C126.268 181.597 126.574 180.632 127.09 179.776C127.606 178.92 128.315 178.197 129.161 177.666Z" fill="#18B2DE"/>
<path d="M137.252 185.218C137.259 185.209 137.268 185.203 137.279 185.198C137.289 185.194 137.3 185.191 137.311 185.191C137.322 185.191 137.333 185.194 137.343 185.198C137.353 185.203 137.362 185.209 137.369 185.218C137.404 185.271 137.421 185.334 137.416 185.397V189.841C137.417 190.27 137.38 190.699 137.307 191.122C137.242 191.508 137.132 191.886 136.979 192.246C136.839 192.577 136.655 192.886 136.432 193.168C136.212 193.428 135.948 193.648 135.651 193.816C135.419 193.967 135.148 194.049 134.87 194.05C134.764 194.042 134.661 194.012 134.567 193.962C134.473 193.912 134.39 193.844 134.324 193.761C134.152 193.532 134.04 193.263 133.996 192.98C133.921 192.602 133.887 192.217 133.894 191.832V187.381C133.894 187.303 133.91 187.226 133.941 187.154C133.96 187.09 134.002 187.035 134.058 186.998L134.55 186.709C134.566 186.694 134.587 186.686 134.609 186.686C134.63 186.686 134.651 186.694 134.667 186.709C134.703 186.762 134.72 186.825 134.714 186.889V191.278C134.708 191.519 134.732 191.761 134.784 191.996C134.806 192.147 134.871 192.288 134.972 192.402C135.007 192.444 135.051 192.477 135.101 192.499C135.152 192.521 135.206 192.53 135.261 192.527C135.394 192.518 135.523 192.475 135.636 192.402C135.774 192.319 135.901 192.217 136.01 192.098C136.132 191.957 136.232 191.799 136.307 191.629C136.395 191.429 136.461 191.219 136.502 191.004C136.548 190.747 136.569 190.485 136.565 190.223V185.827C136.567 185.748 136.586 185.671 136.62 185.6C136.639 185.536 136.68 185.48 136.737 185.444L137.252 185.218Z" fill="#FAFAFA"/>
<path d="M140.313 189.419C140.318 189.362 140.304 189.305 140.274 189.255C140.256 189.235 140.233 189.219 140.207 189.21C140.181 189.2 140.153 189.197 140.126 189.201C140.03 189.187 139.933 189.187 139.837 189.201L139.384 189.286C139.238 189.323 139.085 189.323 138.939 189.286C138.824 189.25 138.725 189.175 138.658 189.076C138.581 188.949 138.531 188.808 138.509 188.662C138.433 188.243 138.433 187.815 138.509 187.397C138.568 187.157 138.652 186.924 138.759 186.702C138.866 186.48 138.997 186.27 139.15 186.077C139.298 185.892 139.478 185.736 139.681 185.616C139.845 185.516 140.029 185.452 140.22 185.429C140.358 185.414 140.498 185.444 140.618 185.514C140.733 185.584 140.823 185.688 140.876 185.811C140.939 185.957 140.973 186.113 140.977 186.272C140.985 186.35 140.969 186.43 140.93 186.498C140.911 186.563 140.87 186.618 140.813 186.655L140.345 186.928C140.323 186.94 140.299 186.947 140.274 186.947C140.25 186.947 140.225 186.94 140.204 186.928L140.103 186.85C140.062 186.818 140.013 186.799 139.962 186.795C139.862 186.806 139.765 186.841 139.681 186.897C139.558 186.971 139.45 187.066 139.361 187.178C139.266 187.301 139.217 187.452 139.22 187.607C139.209 187.667 139.209 187.728 139.22 187.787C139.235 187.809 139.255 187.828 139.278 187.841C139.301 187.855 139.326 187.863 139.353 187.865C139.438 187.879 139.525 187.879 139.611 187.865L140.048 187.787C140.415 187.717 140.665 187.787 140.829 187.99C141.001 188.279 141.08 188.615 141.055 188.951C141.053 189.183 141.022 189.414 140.962 189.638C140.9 189.881 140.811 190.117 140.696 190.341C140.581 190.572 140.437 190.787 140.267 190.981C140.105 191.171 139.912 191.332 139.697 191.457C139.525 191.567 139.329 191.634 139.126 191.653C138.98 191.658 138.835 191.617 138.712 191.536C138.592 191.453 138.499 191.336 138.447 191.2C138.384 191.052 138.352 190.892 138.353 190.731C138.346 190.65 138.362 190.569 138.4 190.497C138.419 190.433 138.461 190.377 138.517 190.341L138.986 190.067C139.048 190.067 139.095 190.028 139.126 190.067L139.228 190.177C139.249 190.2 139.274 190.219 139.302 190.232C139.33 190.246 139.361 190.253 139.392 190.255C139.502 190.255 139.609 190.22 139.697 190.153C139.837 190.073 139.964 189.97 140.071 189.849C140.125 189.784 140.169 189.714 140.204 189.638C140.259 189.576 140.297 189.5 140.313 189.419Z" fill="#FAFAFA"/>
<path d="M141.906 187.303C141.905 186.897 141.939 186.492 142.008 186.092C142.073 185.716 142.175 185.348 142.313 184.991C142.427 184.672 142.585 184.37 142.781 184.093C142.945 183.855 143.158 183.656 143.406 183.507C143.587 183.386 143.808 183.338 144.023 183.375C144.214 183.419 144.381 183.533 144.491 183.695C144.638 183.907 144.742 184.146 144.796 184.398C144.871 184.726 144.908 185.061 144.905 185.397V185.882C144.908 185.963 144.889 186.044 144.851 186.116C144.832 186.18 144.79 186.236 144.734 186.272L142.703 187.451C142.698 187.589 142.717 187.726 142.758 187.857C142.788 187.946 142.842 188.024 142.914 188.084C142.978 188.135 143.059 188.16 143.14 188.154C143.235 188.143 143.325 188.111 143.406 188.06C143.524 187.996 143.63 187.912 143.718 187.811C143.798 187.721 143.866 187.621 143.921 187.514C143.955 187.452 143.991 187.392 144.031 187.334C144.064 187.294 144.104 187.26 144.148 187.233L144.632 186.951C144.649 186.938 144.669 186.931 144.691 186.931C144.712 186.931 144.733 186.938 144.749 186.951C144.77 186.976 144.784 187.005 144.793 187.036C144.801 187.067 144.802 187.1 144.796 187.131C144.787 187.283 144.756 187.433 144.702 187.576C144.635 187.793 144.546 188.002 144.437 188.201C144.315 188.43 144.168 188.644 143.999 188.841C143.831 189.043 143.631 189.214 143.406 189.349C143.221 189.47 143 189.522 142.781 189.497C142.589 189.451 142.422 189.334 142.313 189.169C142.159 188.933 142.055 188.667 142.008 188.388C141.937 188.031 141.903 187.667 141.906 187.303ZM143.406 184.812C143.286 184.876 143.182 184.967 143.101 185.077C143.015 185.187 142.944 185.307 142.891 185.436C142.836 185.565 142.791 185.699 142.758 185.835C142.73 185.958 142.712 186.083 142.703 186.21L144.078 185.429C144.07 185.321 144.054 185.214 144.031 185.108C144.019 185.014 143.981 184.925 143.921 184.851C143.898 184.817 143.868 184.788 143.833 184.767C143.798 184.745 143.759 184.731 143.718 184.726C143.607 184.716 143.497 184.747 143.406 184.812Z" fill="#FAFAFA"/>
<path d="M147.358 182.633C147.121 182.768 146.935 182.976 146.827 183.226C146.705 183.556 146.649 183.906 146.663 184.257V187.076C146.664 187.157 146.648 187.237 146.616 187.311C146.597 187.375 146.555 187.43 146.499 187.467L146.038 187.732C146.03 187.741 146.021 187.747 146.011 187.752C146.001 187.756 145.99 187.759 145.979 187.759C145.968 187.759 145.957 187.756 145.947 187.752C145.937 187.747 145.928 187.741 145.921 187.732C145.886 187.679 145.869 187.616 145.874 187.553V182.5C145.874 182.42 145.89 182.34 145.921 182.266C145.942 182.203 145.983 182.148 146.038 182.11L146.499 181.844C146.514 181.829 146.535 181.821 146.557 181.821C146.579 181.821 146.6 181.829 146.616 181.844C146.652 181.894 146.669 181.955 146.663 182.016V182.266C146.756 182.056 146.871 181.857 147.006 181.672C147.13 181.501 147.29 181.36 147.475 181.258L147.756 181.094C147.77 181.08 147.79 181.072 147.811 181.072C147.831 181.072 147.851 181.08 147.865 181.094C147.903 181.146 147.922 181.21 147.92 181.274V181.985C147.919 182.066 147.9 182.146 147.865 182.219C147.845 182.281 147.807 182.335 147.756 182.375L147.358 182.633Z" fill="#FAFAFA"/>
<path d="M153.183 182.258C153.191 182.25 153.2 182.243 153.21 182.238C153.22 182.234 153.231 182.232 153.242 182.232C153.253 182.232 153.264 182.234 153.274 182.238C153.284 182.243 153.293 182.25 153.3 182.258C153.335 182.311 153.352 182.374 153.347 182.438V183.219C153.347 183.299 153.331 183.379 153.3 183.453C153.274 183.511 153.233 183.562 153.183 183.601L150.512 185.163C150.497 185.178 150.476 185.186 150.454 185.186C150.432 185.186 150.411 185.178 150.395 185.163C150.36 185.113 150.344 185.052 150.348 184.991V177.963C150.349 177.882 150.365 177.803 150.395 177.728C150.417 177.668 150.458 177.615 150.512 177.58L151.004 177.291C151.02 177.276 151.041 177.268 151.063 177.268C151.085 177.268 151.106 177.276 151.122 177.291C151.156 177.341 151.173 177.402 151.168 177.463V183.406L153.183 182.258Z" fill="#FAFAFA"/>
<path d="M155.581 176.479C155.757 176.357 155.969 176.299 156.182 176.315C156.365 176.329 156.536 176.413 156.659 176.549C156.804 176.716 156.911 176.914 156.971 177.127C157.054 177.403 157.102 177.69 157.112 177.978C157.112 178.041 157.112 178.127 157.112 178.228V178.829C157.112 178.923 157.112 179.009 157.112 179.079C157.096 179.419 157.049 179.756 156.971 180.087C156.899 180.409 156.794 180.723 156.659 181.024C156.535 181.304 156.375 181.567 156.182 181.805C156.018 182.021 155.814 182.204 155.581 182.344C155.4 182.461 155.187 182.519 154.972 182.508C154.791 182.492 154.624 182.408 154.503 182.273C154.353 182.112 154.246 181.916 154.191 181.703C154.107 181.427 154.06 181.141 154.05 180.852C154.05 180.79 154.05 180.711 154.05 180.61V180.009C154.05 179.907 154.05 179.821 154.05 179.759C154.059 179.417 154.104 179.076 154.183 178.744C154.259 178.419 154.366 178.102 154.503 177.799C154.627 177.52 154.785 177.258 154.972 177.018C155.137 176.8 155.344 176.616 155.581 176.479ZM156.315 178.494C156.315 178.321 156.286 178.149 156.229 177.986C156.2 177.886 156.14 177.799 156.057 177.736C155.991 177.691 155.91 177.672 155.831 177.681C155.742 177.698 155.657 177.733 155.581 177.783C155.489 177.833 155.405 177.896 155.331 177.97C155.241 178.064 155.165 178.169 155.105 178.283C155.026 178.425 154.968 178.577 154.933 178.736C154.882 178.935 154.85 179.139 154.839 179.345C154.839 179.407 154.839 179.478 154.839 179.563V180.118C154.839 180.204 154.839 180.274 154.839 180.321C154.846 180.494 154.878 180.665 154.933 180.829C154.961 180.928 155.022 181.016 155.105 181.079C155.137 181.102 155.174 181.118 155.213 181.126C155.252 181.134 155.292 181.134 155.331 181.125C155.42 181.11 155.504 181.079 155.581 181.032C155.671 180.979 155.755 180.917 155.831 180.844C155.918 180.749 155.994 180.644 156.057 180.532C156.132 180.388 156.19 180.236 156.229 180.079C156.28 179.88 156.309 179.675 156.315 179.47C156.32 179.397 156.32 179.324 156.315 179.251V178.704C156.32 178.634 156.32 178.564 156.315 178.494Z" fill="#FAFAFA"/>
<path d="M159.501 181.048C159.601 180.987 159.691 180.91 159.767 180.821C159.861 180.711 159.942 180.59 160.009 180.462C160.087 180.305 160.147 180.14 160.189 179.97C160.237 179.778 160.26 179.582 160.259 179.384V178.986C160.259 179.064 160.181 179.158 160.126 179.267C160.073 179.381 160.01 179.491 159.939 179.595C159.857 179.705 159.768 179.809 159.673 179.907C159.575 180.01 159.462 180.097 159.337 180.165C159.257 180.22 159.167 180.258 159.071 180.277C158.976 180.295 158.878 180.295 158.783 180.274C158.609 180.22 158.46 180.107 158.361 179.954C158.234 179.752 158.141 179.531 158.088 179.298C158.021 179.003 157.985 178.702 157.979 178.4C157.979 178.299 157.979 178.174 157.979 178.025C157.979 177.877 157.979 177.752 157.979 177.643C157.988 177.299 158.025 176.957 158.088 176.62C158.152 176.287 158.243 175.961 158.361 175.643C158.472 175.368 158.613 175.106 158.783 174.862C158.927 174.647 159.116 174.466 159.337 174.331C159.441 174.269 159.555 174.224 159.673 174.199C159.761 174.182 159.851 174.182 159.939 174.199C160.008 174.218 160.072 174.253 160.126 174.3C160.176 174.338 160.221 174.383 160.259 174.433V174.183C160.259 174.103 160.275 174.023 160.306 173.949C160.328 173.888 160.369 173.836 160.423 173.8L160.884 173.527C160.9 173.512 160.92 173.504 160.942 173.504C160.964 173.504 160.985 173.512 161.001 173.527C161.039 173.579 161.058 173.642 161.055 173.707V178.783C161.077 179.543 160.935 180.299 160.642 181.001C160.411 181.552 160.012 182.017 159.501 182.328C159.327 182.436 159.128 182.498 158.923 182.508C158.761 182.518 158.6 182.477 158.463 182.391C158.331 182.292 158.224 182.164 158.15 182.016C158.074 181.838 158.032 181.647 158.025 181.454C158.018 181.373 158.034 181.291 158.072 181.219C158.091 181.155 158.133 181.1 158.189 181.063L158.603 180.829C158.613 180.819 158.624 180.811 158.637 180.805C158.65 180.8 158.664 180.797 158.677 180.797C158.691 180.797 158.705 180.8 158.718 180.805C158.731 180.811 158.742 180.819 158.752 180.829C158.79 180.869 158.824 180.914 158.853 180.962C158.901 181.045 158.979 181.107 159.072 181.133C159.166 181.204 159.306 181.126 159.501 181.048ZM158.767 177.26C158.767 177.468 158.767 177.671 158.767 177.869C158.745 178.181 158.833 178.491 159.017 178.744C159.087 178.804 159.175 178.837 159.267 178.837C159.359 178.837 159.448 178.804 159.517 178.744C159.744 178.596 159.921 178.384 160.025 178.135C160.167 177.809 160.246 177.459 160.259 177.104C160.259 176.987 160.259 176.846 160.259 176.682C160.259 176.518 160.259 176.377 160.259 176.276C160.275 175.996 160.192 175.72 160.025 175.495C159.955 175.431 159.865 175.396 159.771 175.396C159.677 175.396 159.586 175.431 159.517 175.495C159.295 175.642 159.121 175.851 159.017 176.096C158.857 176.464 158.772 176.859 158.767 177.26Z" fill="#FAFAFA"/>
<path d="M162.875 170.325C162.89 170.312 162.91 170.305 162.93 170.305C162.95 170.305 162.969 170.312 162.984 170.325C163.025 170.376 163.045 170.44 163.039 170.505V171.356C163.039 171.437 163.021 171.518 162.984 171.59C162.962 171.649 162.924 171.7 162.875 171.739L162.352 172.043C162.344 172.051 162.335 172.058 162.325 172.063C162.315 172.067 162.304 172.07 162.293 172.07C162.282 172.07 162.271 172.067 162.261 172.063C162.251 172.058 162.242 172.051 162.235 172.043C162.214 172.02 162.199 171.992 162.189 171.963C162.18 171.933 162.177 171.902 162.18 171.871V171.02C162.179 170.939 162.198 170.859 162.235 170.786C162.256 170.725 162.298 170.673 162.352 170.637L162.875 170.325ZM163.008 177.658C163.008 177.736 162.992 177.813 162.961 177.885C162.936 177.946 162.896 178 162.844 178.041L162.375 178.306C162.369 178.315 162.36 178.321 162.351 178.326C162.341 178.33 162.331 178.332 162.32 178.332C162.31 178.332 162.3 178.33 162.29 178.326C162.281 178.321 162.272 178.315 162.266 178.306C162.225 178.256 162.205 178.191 162.211 178.127V173.074C162.211 172.993 162.229 172.912 162.266 172.84C162.288 172.779 162.326 172.725 162.375 172.684L162.844 172.418C162.86 172.403 162.881 172.395 162.902 172.395C162.924 172.395 162.945 172.403 162.961 172.418C162.996 172.468 163.012 172.529 163.008 172.59V177.658Z" fill="#FAFAFA"/>
<path d="M167.116 175.276C167.115 175.357 167.099 175.436 167.069 175.51C167.047 175.571 167.006 175.623 166.952 175.659L166.483 175.932C166.469 175.946 166.449 175.955 166.429 175.955C166.408 175.955 166.388 175.946 166.374 175.932C166.333 175.882 166.313 175.817 166.319 175.753V173.004C166.343 172.679 166.284 172.354 166.147 172.059C166.038 171.863 165.866 171.832 165.624 171.973C165.383 172.135 165.204 172.375 165.117 172.652C164.986 173.021 164.923 173.409 164.929 173.8V176.557C164.929 176.637 164.913 176.717 164.882 176.791C164.863 176.856 164.822 176.911 164.765 176.947L164.304 177.213C164.297 177.221 164.288 177.228 164.278 177.232C164.268 177.237 164.257 177.239 164.246 177.239C164.235 177.239 164.224 177.237 164.214 177.232C164.204 177.228 164.195 177.221 164.187 177.213C164.151 177.163 164.134 177.102 164.14 177.041V171.988C164.139 171.908 164.155 171.828 164.187 171.754C164.206 171.69 164.248 171.634 164.304 171.598L164.765 171.332C164.772 171.324 164.781 171.317 164.792 171.313C164.802 171.308 164.813 171.306 164.824 171.306C164.835 171.306 164.846 171.308 164.856 171.313C164.866 171.317 164.875 171.324 164.882 171.332C164.917 171.385 164.934 171.449 164.929 171.512V171.754C165.032 171.516 165.157 171.289 165.304 171.075C165.433 170.877 165.607 170.714 165.812 170.598C165.989 170.468 166.21 170.412 166.429 170.442C166.515 170.464 166.596 170.504 166.666 170.559C166.736 170.614 166.793 170.683 166.835 170.762C166.948 170.974 167.022 171.204 167.053 171.442C167.095 171.752 167.116 172.065 167.116 172.379V175.276Z" fill="#FAFAFA"/>
<path d="M206.507 152.543L198.924 156.916L200.103 146.279C199.189 145.795 198.611 144.616 198.611 142.921C198.611 139.899 200.454 136.393 202.719 135.112C204.984 133.831 206.819 135.19 206.819 138.236C206.772 140.028 206.261 141.777 205.335 143.312L206.507 152.543Z" fill="#455A64"/>
<path d="M206.515 152.543L199.838 148.693L198.924 156.924L206.515 152.543Z" fill="#37474F"/>
<path d="M202.704 135.088C201.052 136.204 199.821 137.84 199.205 139.735L205.32 143.265C206.246 141.73 206.757 139.981 206.804 138.189C206.819 135.167 204.984 133.784 202.704 135.088Z" fill="#37474F"/>
<path d="M165.843 99.6723C163.242 98.1729 159.658 98.3838 155.69 100.672C147.771 105.248 141.352 116.361 141.352 125.506C141.352 130.098 142.976 133.316 145.585 134.8L150.638 137.736C153.23 139.235 156.815 139.017 160.79 136.728C168.709 132.16 175.128 121.039 175.128 111.894C175.128 107.326 173.519 104.085 170.927 102.624" fill="#18B2DE"/>
<path d="M160.782 103.616C152.863 108.193 146.444 119.313 146.444 128.45C146.444 137.588 152.863 141.305 160.782 136.729C168.701 132.152 175.128 121.039 175.12 111.894C175.113 102.749 168.693 99.0476 160.782 103.616Z" fill="#18B2DE"/>
<path d="M168.693 123.905V124.952C166.796 128.338 164.075 131.191 160.782 133.245C157.697 135.018 154.909 135.213 152.863 134.081V131.926C152.968 129.683 153.608 127.498 154.731 125.554C155.853 123.61 157.424 121.962 159.314 120.75L161.399 119.547C163.242 118.485 165.038 118.345 166.444 119.165C167.85 119.985 168.693 121.711 168.693 123.905Z" fill="#18B2DE"/>
<path opacity="0.4" d="M165.843 99.6724L170.919 102.624C168.326 101.117 164.741 101.328 160.766 103.616C155.581 106.615 151.036 112.418 148.521 118.634L143.437 115.69C145.959 109.442 150.466 103.671 155.682 100.672C159.665 98.3916 163.25 98.173 165.843 99.6724Z" fill="white"/>
<path opacity="0.2" d="M150.458 137.619L145.593 134.799C142.984 133.316 141.36 130.114 141.36 125.506L146.444 128.458C146.475 132.91 147.975 136.08 150.458 137.619Z" fill="black"/>
<path opacity="0.1" d="M143.453 115.69L148.537 118.634C147.234 121.746 146.535 125.077 146.475 128.45L141.391 125.498C141.454 122.128 142.153 118.8 143.453 115.69Z" fill="black"/>
<path d="M158.97 119.055C158.486 119.061 158.009 118.937 157.588 118.696C157.081 118.358 156.675 117.89 156.412 117.34C156.149 116.79 156.04 116.179 156.096 115.572C156.163 114.15 156.569 112.763 157.281 111.53C157.993 110.296 158.99 109.251 160.188 108.481C160.67 108.097 161.256 107.867 161.871 107.821C162.485 107.775 163.099 107.916 163.633 108.225C164.166 108.533 164.593 108.996 164.86 109.552C165.126 110.108 165.218 110.731 165.124 111.34C165.057 112.762 164.65 114.148 163.938 115.382C163.226 116.615 162.23 117.66 161.032 118.431C160.412 118.818 159.701 119.033 158.97 119.055Z" fill="white"/>
<path d="M166.444 119.157C165.038 118.337 163.242 118.478 161.399 119.54L159.314 120.742C157.423 121.955 155.851 123.604 154.729 125.55C153.607 127.495 152.967 129.682 152.863 131.926V134.089C154.909 135.221 157.697 135.026 160.782 133.253C164.075 131.198 166.796 128.346 168.693 124.959V123.913C168.693 121.711 167.881 119.985 166.444 119.157Z" fill="white"/>
<path d="M326.992 254.262C326.992 254.262 328.031 245.14 332.568 238.057C337.106 230.974 343.338 226.561 349.156 226.101C354.974 225.64 359.675 230.997 353.451 234.691C347.227 238.385 336.168 242.118 331.077 255.863L326.992 254.262Z" fill="#18B2DE"/>
<path opacity="0.1" d="M326.992 254.262C326.992 254.262 328.031 245.14 332.568 238.057C337.106 230.974 343.338 226.561 349.156 226.101C354.974 225.64 359.675 230.997 353.451 234.691C347.227 238.385 336.168 242.118 331.077 255.863L326.992 254.262Z" fill="black"/>
<path d="M328.702 251.888H328.64C328.563 251.856 328.502 251.796 328.47 251.72C328.438 251.644 328.437 251.558 328.468 251.482C334.606 236.37 346.289 230.052 351.615 228.834C351.655 228.825 351.697 228.823 351.737 228.83C351.778 228.837 351.817 228.852 351.851 228.873C351.886 228.895 351.916 228.924 351.94 228.957C351.964 228.99 351.981 229.028 351.99 229.068C351.999 229.108 352.001 229.15 351.994 229.19C351.987 229.231 351.972 229.269 351.951 229.304C351.929 229.339 351.901 229.369 351.867 229.393C351.834 229.417 351.796 229.434 351.756 229.443C346.539 230.646 335.083 236.846 329.046 251.724C329.016 251.786 328.965 251.836 328.903 251.866C328.84 251.896 328.77 251.903 328.702 251.888Z" fill="white"/>
<path d="M359.769 252.067C359.245 253.254 357.949 253.879 356.746 254.363C355.544 254.847 354.232 255.371 353.576 256.495C352.264 258.76 354.419 261.962 353.013 264.156C352.682 264.598 352.265 264.968 351.788 265.245C351.31 265.521 350.781 265.698 350.233 265.765C349.335 265.929 348.421 265.929 347.515 266.007C347.082 266.001 346.649 265.968 346.219 265.906C344.957 265.624 343.638 265.764 342.463 266.304C340.659 267.319 340.12 269.592 339.011 271.349C338.333 272.383 337.44 273.26 336.393 273.917C335.346 274.575 334.169 274.999 332.943 275.16C332.162 275.261 330.6 275.41 329.819 274.949C329.758 274.919 329.7 274.882 329.647 274.84C329.53 274.715 329.39 274.551 329.327 274.465C329.323 274.447 329.323 274.428 329.327 274.41C329.007 273.231 329.53 272.013 329.554 270.794V270.576C329.499 269.162 329.46 267.757 329.429 266.351C329.361 263.748 329.335 261.144 329.351 258.541C329.351 256.854 329.163 255.011 329.882 253.426C330.662 251.677 332.63 251.638 333.372 249.927C333.669 249.24 333.825 248.514 334.114 247.819C334.561 246.808 335.276 245.94 336.182 245.308C337.088 244.676 338.15 244.304 339.253 244.234C342.681 244.062 345.75 246.835 349.179 246.577C350.061 246.507 350.928 246.233 351.803 246.077C354.575 245.554 357.785 246.343 359.347 248.693C359.69 249.178 359.907 249.739 359.981 250.327C360.055 250.916 359.982 251.514 359.769 252.067Z" fill="#18B2DE"/>
<path d="M328.984 268.998C328.91 268.976 328.847 268.927 328.809 268.86C328.772 268.793 328.761 268.714 328.781 268.639C333.513 250.88 352.209 248.334 356.606 248.631C356.645 248.633 356.682 248.643 356.717 248.66C356.752 248.677 356.783 248.7 356.809 248.729C356.834 248.759 356.854 248.793 356.866 248.829C356.878 248.866 356.882 248.905 356.879 248.943C356.871 249.019 356.834 249.089 356.776 249.139C356.718 249.188 356.643 249.213 356.567 249.209C352.279 248.904 333.974 251.411 329.343 268.795C329.321 268.869 329.271 268.932 329.204 268.969C329.137 269.007 329.058 269.018 328.984 268.998Z" fill="white"/>
<path d="M349.78 260.002C349.721 259.994 349.666 259.966 349.624 259.924C347.896 258.426 345.858 257.328 343.656 256.708C341.454 256.088 339.143 255.962 336.887 256.339C336.811 256.346 336.735 256.324 336.674 256.278C336.613 256.232 336.572 256.164 336.559 256.089C336.548 256.013 336.566 255.935 336.612 255.872C336.657 255.809 336.725 255.767 336.801 255.753C339.154 255.362 341.564 255.495 343.86 256.145C346.155 256.794 348.278 257.943 350.077 259.51C350.105 259.537 350.127 259.569 350.142 259.604C350.157 259.64 350.164 259.678 350.164 259.717C350.164 259.755 350.157 259.794 350.142 259.829C350.127 259.865 350.105 259.897 350.077 259.924C350.042 259.966 349.994 259.996 349.941 260.01C349.888 260.024 349.832 260.021 349.78 260.002Z" fill="white"/>
<path d="M284.016 39.7733L286.5 40.726V35.2594C286.5 30.9173 289.959 29.8786 293.716 32.0497C297.48 34.2207 300.526 39.4921 300.526 43.8342V44.6152C301.049 44.4552 301.602 44.4157 302.143 44.4995C302.684 44.5834 303.199 44.7884 303.649 45.0994C305.076 46.0294 306.263 47.2829 307.113 48.7579C307.964 50.233 308.455 51.8879 308.546 53.5883V53.9476L312.013 55.9468C312.952 56.5591 313.732 57.3837 314.293 58.3537C314.853 59.3238 315.177 60.4121 315.239 61.5306C315.239 63.5923 313.794 64.4279 312.013 63.3971L284.016 47.2236C283.078 46.6127 282.297 45.7883 281.737 44.8178C281.178 43.8473 280.857 42.7583 280.799 41.6398C280.799 39.5859 282.228 38.7502 284.016 39.7733Z" fill="#E6E6E6"/>
<path d="M317.277 35.4469L321.783 38.0475C321.759 37.8506 321.745 37.6524 321.744 37.454V36.1498C321.744 33.8069 323.368 32.8854 325.383 34.049C326.249 34.5791 326.99 35.2905 327.554 36.1342C327.882 33.2134 330.178 32.1279 332.959 33.7288C334.547 34.7626 335.87 36.1561 336.82 37.7965C337.77 39.4369 338.32 41.278 338.425 43.1705V45.1229C338.445 45.903 338.288 46.6775 337.964 47.3877L341.713 49.5431C342.297 49.9306 342.782 50.4496 343.13 51.0586C343.477 51.6676 343.676 52.3495 343.712 53.0496C343.712 54.3381 342.806 54.8614 341.69 54.221L317.277 40.1639C316.687 39.7792 316.196 39.2602 315.844 38.6495C315.492 38.0387 315.29 37.3534 315.254 36.6496C315.254 35.3298 316.16 34.8065 317.277 35.4469Z" fill="#E6E6E6"/>
<path d="M299.831 153.972C296.551 159.516 293.396 164.335 291.178 166.647C286.969 168.599 277.082 171.613 273.216 172.113C272.537 172.2 271.85 172.039 271.279 171.66C269.756 170.661 268.577 170.497 266.976 169.942C265.719 169.513 265.188 168.911 264.954 169.161C264.711 169.445 264.59 169.812 264.615 170.184C264.64 170.556 264.809 170.904 265.086 171.153C265.687 171.723 266.353 172.221 267.07 172.636C265.355 173.062 263.566 173.094 261.838 172.73C258.487 171.848 256.91 173.456 259.174 177.096C259.955 178.392 263.173 180.477 269.639 179.915C271.946 179.791 274.243 179.53 276.519 179.134C282.72 177.806 289.616 176.526 293.857 175.229C295.434 174.609 296.846 173.63 297.98 172.371C305.11 164.241 307.476 158.447 310.6 153.183L310.335 144.593C305.274 144.421 302.572 149.333 299.831 153.972Z" fill="#FFA8A7"/>
<path d="M311.202 144.421C309.734 144.214 308.239 144.413 306.876 144.995C305.513 145.578 304.336 146.521 303.47 147.724C300.003 152.168 293.865 162.836 293.865 162.836C293.865 162.836 295.872 168.185 301.292 169.083L309.999 157.322C309.999 157.322 314.123 149.153 311.202 144.421Z" fill="#455A64"/>
<path d="M330.031 264.328H324.353V274.449H330.031V264.328Z" fill="#FFA8A7"/>
<path d="M310.35 263.789L304.681 263.992L304.392 253.278L310.35 253.075V263.789Z" fill="#FFA8A7"/>
<path d="M330.827 176.713C330.827 182.352 329.999 227.78 329.999 227.78C330.124 229.404 331.561 232.403 331.272 238.643C330.842 247.116 330.272 269.389 330.272 269.389C329.298 269.887 328.222 270.158 327.128 270.179C326.033 270.201 324.948 269.973 323.954 269.514C323.954 269.514 319.347 238.276 318.332 229.912C317.441 222.578 315.161 198.306 315.161 198.306L312.092 226.999C312.742 230.077 312.979 233.229 312.795 236.37C312.529 240.275 310.702 260.486 310.702 260.486C309.721 261.064 308.621 261.412 307.486 261.503C306.351 261.594 305.21 261.425 304.149 261.009C304.149 261.009 300.916 230.552 300.854 226.975C300.776 222.914 302.744 176.666 302.744 176.666L330.827 176.713Z" fill="#37474F"/>
<path d="M324.353 271.528V270.685C323.806 270.927 322.549 275.941 320.292 278.081C318.504 279.783 316.067 281.743 315.442 283.641C314.817 285.539 318.839 286.702 320.518 286.398C322.455 286.038 325.829 284.609 326.672 283.274C327.516 281.938 327.914 280.002 328.601 279.033C329.289 278.065 330.874 276.987 331.241 275.863C331.355 274.81 331.246 273.746 330.921 272.739C330.655 271.692 330.374 270.544 330.03 270.646V271.286C329.23 271.943 328.223 272.297 327.188 272.286C326.36 272.356 324.345 272.184 324.353 271.528Z" fill="#263238"/>
<path d="M304.618 262.165C304.322 262.165 304.079 262.61 303.431 263.344C302.467 264.358 301.34 265.203 300.097 265.843C297.972 266.952 293.849 268.655 291.967 269.537C290.795 270.084 290.85 271.552 292.061 272.387C293.271 273.223 296.184 273.824 299.683 273.012C301.588 272.567 304.072 270.732 305.649 270.833C307.227 270.935 310.155 270.904 311.319 270.052C312.482 269.201 312.014 267.436 311.686 265.913C311.327 264.242 310.905 261.642 310.35 261.759V262.344C309.671 263.422 306.149 263.859 304.65 263.071L304.618 262.165Z" fill="#263238"/>
<path d="M315.161 198.307C312.208 197.34 309.508 195.726 307.258 193.582C307.258 193.582 308.82 196.557 313.318 199.33L312.35 224.953L315.161 198.307Z" fill="#263238"/>
<path d="M327.656 145.249C327.656 145.249 332.342 146.326 332.006 154.792L331.03 168.263V188.49C326.86 193.223 308.382 192.879 302.018 188.115C302.018 188.115 302.736 164.179 303.166 154.964C303.47 148.419 304.977 145.124 311.412 144.405L319.323 144.749L327.656 145.249Z" fill="#18B2DE"/>
<path d="M321.69 127.662C321.717 128.795 321.519 129.922 321.108 130.979C320.697 132.036 320.081 133.001 319.296 133.818C318.51 134.635 317.571 135.289 316.531 135.742C315.492 136.195 314.373 136.437 313.24 136.455C308.554 136.455 305.805 132.41 304.79 127.662C302.916 118.97 308.57 118.86 313.24 118.86C315.527 118.908 317.702 119.861 319.287 121.512C320.871 123.162 321.736 125.374 321.69 127.662Z" fill="#263238"/>
<path d="M326.001 131.215C326.001 131.215 324.704 137.556 324.181 138.603C323.852 139.232 323.292 139.711 322.619 139.938L322.713 135.479L326.001 131.215Z" fill="#263238"/>
<path d="M324.368 122.133C324.368 122.133 325.298 121.898 326.289 123.445C327.133 124.764 327.328 127.732 326.001 131.254L323.556 131.551L324.368 122.133Z" fill="#263238"/>
<path d="M325.267 123.421L328.265 123.476C328.286 123.282 328.266 123.086 328.207 122.9C328.149 122.714 328.052 122.543 327.924 122.396C327.795 122.249 327.638 122.131 327.462 122.048C327.285 121.965 327.094 121.919 326.899 121.914C326.489 121.92 326.095 122.077 325.794 122.355C325.493 122.633 325.305 123.013 325.267 123.421Z" fill="#263238"/>
<path d="M325.634 122.71L327.852 120.578C327.724 120.428 327.566 120.305 327.389 120.219C327.211 120.132 327.017 120.083 326.82 120.075C326.623 120.067 326.426 120.1 326.242 120.172C326.058 120.244 325.89 120.353 325.751 120.493C325.457 120.78 325.281 121.168 325.26 121.579C325.238 121.99 325.371 122.393 325.634 122.71Z" fill="#263238"/>
<path d="M322.822 131.512C323.314 131.816 324.009 130.84 324.618 130.176C325.227 129.512 327.117 128.903 328.101 131.059C329.085 133.214 327.406 135.346 326 136.049C323.478 137.298 322.681 135.479 322.681 135.479L322.471 145.522C318.925 150.989 310.881 150.817 313.779 145.256V142.203C312.587 142.401 311.376 142.464 310.171 142.39C308.203 142.078 306.969 140.461 306.367 138.243C305.415 134.682 305.048 131.808 305.86 124.803C306.75 117.134 315.325 117.048 319.917 120.118C324.509 123.187 322.822 131.512 322.822 131.512Z" fill="#FFA8A7"/>
<path d="M312.139 123.608C314.185 123.405 316.207 122.984 318.261 122.828C318.704 122.774 319.153 122.795 319.589 122.89C321.151 123.32 320.963 125.147 321.213 126.42C321.643 128.622 321.994 132.347 322.822 132.363C323.072 132.363 324.009 130.746 324.618 130.168C324.953 129.671 325.142 129.089 325.165 128.489C325.321 127.584 325.399 126.654 325.47 125.733C325.532 124.952 325.61 124.171 325.61 123.39C325.646 122.507 325.575 121.624 325.399 120.758C325.203 120.022 324.828 119.345 324.306 118.79L324.15 118.618C323.12 117.542 321.871 116.7 320.487 116.15C318.496 115.404 316.407 114.949 314.286 114.799C312.168 114.649 310.059 114.389 307.968 114.018C307.849 113.983 307.721 113.983 307.601 114.018C307.517 114.065 307.445 114.133 307.393 114.215C307.341 114.297 307.311 114.39 307.305 114.487C307.219 114.972 307.273 115.472 307.459 115.928C307.646 116.384 307.958 116.778 308.359 117.064C306.945 117.173 305.321 116.439 303.962 116.064C303.852 116.018 303.734 115.994 303.615 115.994C303.495 115.994 303.377 116.018 303.267 116.064C303.131 116.16 303.034 116.301 302.994 116.463C302.895 116.83 302.882 117.214 302.955 117.587C303.079 118.718 303.499 119.795 304.173 120.711C305.226 122.082 306.713 123.054 308.39 123.468C309.625 123.706 310.889 123.753 312.139 123.608Z" fill="#263238"/>
<path d="M313.787 142.203C313.787 142.203 318.176 141.281 319.706 140.43C320.618 139.931 321.358 139.169 321.83 138.243C321.6 139.174 321.189 140.049 320.62 140.821C319.503 142.32 313.787 143.413 313.787 143.413V142.203Z" fill="#F28F8F"/>
<path d="M314.841 130.364C314.832 130.605 314.92 130.839 315.083 131.016C315.247 131.193 315.475 131.298 315.716 131.309C315.907 131.324 316.098 131.282 316.265 131.187C316.432 131.092 316.566 130.949 316.65 130.776C316.734 130.603 316.764 130.409 316.736 130.22C316.708 130.03 316.623 129.853 316.493 129.712C316.362 129.571 316.193 129.473 316.005 129.43C315.818 129.387 315.623 129.402 315.444 129.473C315.265 129.543 315.112 129.666 315.005 129.825C314.897 129.984 314.84 130.172 314.841 130.364Z" fill="#263238"/>
<path d="M316.247 126.576L318.129 127.662C318.266 127.394 318.297 127.085 318.216 126.795C318.135 126.506 317.947 126.257 317.691 126.1C317.567 126.03 317.429 125.986 317.286 125.973C317.144 125.959 317 125.975 316.864 126.02C316.728 126.064 316.603 126.137 316.497 126.233C316.39 126.329 316.305 126.446 316.247 126.576Z" fill="#263238"/>
<path d="M314.177 136.697L312.17 137.478C312.21 137.616 312.279 137.744 312.37 137.854C312.462 137.964 312.576 138.054 312.704 138.119C312.832 138.183 312.972 138.221 313.115 138.229C313.259 138.237 313.402 138.215 313.537 138.165C313.81 138.048 314.028 137.831 314.147 137.558C314.266 137.285 314.277 136.978 314.177 136.697Z" fill="#F28F8F"/>
<path d="M306.766 127.38L308.484 126.006C308.407 125.886 308.306 125.784 308.186 125.705C308.067 125.627 307.933 125.575 307.792 125.552C307.651 125.529 307.507 125.536 307.37 125.573C307.232 125.609 307.103 125.674 306.992 125.764C306.763 125.959 306.613 126.231 306.571 126.529C306.529 126.827 306.599 127.13 306.766 127.38Z" fill="#263238"/>
<path d="M307.523 130.106C307.537 130.277 307.6 130.44 307.705 130.576C307.81 130.711 307.952 130.813 308.114 130.87C308.276 130.926 308.451 130.933 308.617 130.892C308.783 130.85 308.934 130.761 309.05 130.635C309.167 130.51 309.244 130.353 309.273 130.184C309.302 130.015 309.281 129.841 309.212 129.684C309.144 129.527 309.031 129.393 308.888 129.299C308.745 129.204 308.577 129.154 308.406 129.153C308.285 129.157 308.166 129.185 308.057 129.235C307.947 129.286 307.848 129.357 307.766 129.446C307.684 129.534 307.62 129.638 307.578 129.752C307.537 129.865 307.518 129.985 307.523 130.106Z" fill="#263238"/>
<path d="M312.233 129.372L312.131 134.924L308.976 134.206L312.233 129.372Z" fill="#F28F8F"/>
<path d="M237.308 175.878L242.205 173.051L244.141 170.7L239.253 173.527L237.308 175.878Z" fill="#18B2DE"/>
<path opacity="0.4" d="M237.308 175.878L242.205 173.051L244.141 170.7L239.253 173.527L237.308 175.878Z" fill="black"/>
<path d="M250.623 183.562L255.52 180.735L259.604 177.119L254.715 179.938L250.623 183.562Z" fill="#18B2DE"/>
<path opacity="0.4" d="M250.623 183.562L255.52 180.735L259.604 177.119L254.715 179.938L250.623 183.562Z" fill="black"/>
<path d="M292.217 193.316C293.375 194.868 294.075 196.713 294.239 198.642C293.087 197.088 292.387 195.244 292.217 193.316ZM303.595 193.465C301.947 182.258 295.926 171.176 288.757 167.029C285.313 165.038 282.127 164.968 279.573 166.459L274.965 169.115L274.708 169.271C274.503 169.384 274.304 169.509 274.114 169.646C273.736 169.906 273.38 170.199 273.052 170.52L272.896 170.669C272.755 170.809 272.607 170.973 272.474 171.129C272.341 171.286 272.138 171.528 271.982 171.739C271.651 172.175 271.351 172.634 271.084 173.113C270.944 173.355 270.811 173.613 270.686 173.894L230.443 150.668L225.555 153.488V156.611L225.969 156.846L226.359 157.072V157.697L225.578 158.158V159.97L231.49 172.465L237.331 175.846L239.276 173.503L244.43 176.588L247.39 181.657L250.654 183.539L254.739 179.915L259.753 182.812L261.439 189.771L269.866 194.644C270.282 196.415 270.804 198.159 271.428 199.868C271.482 200.04 271.553 200.22 271.623 200.415C274.419 207.756 278.862 214.043 283.876 216.94C284.477 217.296 285.107 217.602 285.758 217.854C286.103 217.991 286.455 218.108 286.813 218.205C287.125 218.288 287.437 218.359 287.75 218.416C288.736 218.596 289.747 218.596 290.733 218.416L291.139 218.314C291.333 218.275 291.524 218.221 291.709 218.15L292.146 217.979C292.301 217.923 292.45 217.852 292.592 217.768C292.736 217.705 292.877 217.635 293.013 217.557L293.216 217.432C293.253 217.42 293.287 217.401 293.318 217.377C294.435 216.737 297.184 215.144 297.933 214.722C301.651 212.567 304.056 207.116 304.056 199.408C304.05 197.418 303.896 195.431 303.595 193.465Z" fill="#18B2DE"/>
<path d="M290.788 202.773C288.851 201.657 287.289 198.345 287.289 195.378C287.289 192.41 288.851 190.903 290.788 192.012C292.724 193.121 294.278 196.44 294.278 199.415C294.278 202.391 292.717 203.89 290.788 202.773ZM298.699 196.284C297.059 185.085 291.037 173.995 283.861 169.856C280.534 167.935 277.457 167.795 274.958 169.114L274.7 169.271C274.495 169.384 274.297 169.509 274.106 169.645C273.728 169.906 273.373 170.199 273.044 170.52L272.888 170.668C272.748 170.809 272.599 170.973 272.466 171.129C272.334 171.285 272.131 171.528 271.974 171.738C271.643 172.175 271.343 172.634 271.076 173.113C270.936 173.355 270.803 173.613 270.678 173.894C269.95 175.403 269.425 177.003 269.116 178.65L225.547 153.488V156.611L225.961 156.846L226.351 157.072V157.697L225.57 158.158V159.969L231.482 172.465L237.324 175.846L239.268 173.503L244.422 176.588L247.382 181.656L250.647 183.539L254.731 179.915L259.745 182.812L261.432 189.771L269.866 194.644C270.282 196.415 270.804 198.159 271.428 199.868C271.482 200.04 271.553 200.22 271.623 200.415C274.419 207.756 278.862 214.043 283.876 216.94C284.477 217.296 285.107 217.602 285.758 217.854C286.103 217.991 286.455 218.108 286.813 218.205C287.125 218.288 287.437 218.359 287.75 218.416C288.736 218.596 289.747 218.596 290.733 218.416L291.139 218.314C291.333 218.275 291.524 218.22 291.709 218.15L292.146 217.979C292.301 217.923 292.45 217.852 292.592 217.768C292.736 217.705 292.877 217.635 293.013 217.557L293.216 217.432C293.253 217.42 293.288 217.401 293.318 217.377C296.879 215.128 299.167 209.755 299.167 202.235C299.154 200.242 298.997 198.253 298.699 196.284Z" fill="#18B2DE"/>
<path opacity="0.4" d="M294.279 199.408C294.279 202.383 292.717 203.89 290.788 202.774C288.859 201.657 287.289 198.353 287.289 195.378C287.289 192.402 288.851 190.895 290.788 192.012C291.345 192.351 291.831 192.797 292.217 193.324C292.385 195.252 293.085 197.096 294.24 198.65C294.268 198.902 294.281 199.155 294.279 199.408Z" fill="black"/>
<path opacity="0.4" d="M304.04 199.4C304.04 207.108 301.635 212.559 297.918 214.714C297.137 215.136 294.419 216.729 293.302 217.369C296.863 215.12 299.151 209.747 299.151 202.227C299.143 200.237 298.992 198.251 298.698 196.284C297.058 185.085 291.037 173.995 283.86 169.856C280.534 167.935 277.457 167.795 274.958 169.114L279.565 166.459C282.119 164.968 285.305 165.038 288.749 167.029C295.926 171.176 301.947 182.258 303.587 193.464C303.885 195.429 304.036 197.413 304.04 199.4Z" fill="white"/>
<path d="M299.152 202.211C299.152 209.732 296.863 215.105 293.302 217.354C294.419 216.714 297.168 215.12 297.918 214.699C301.635 212.543 304.04 207.092 304.04 199.384C304.04 199.103 304.04 198.814 304.04 198.525L299.152 201.352C299.144 201.657 299.152 201.938 299.152 202.211Z" fill="#18B2DE"/>
<path opacity="0.1" d="M299.152 202.211C299.152 209.732 296.863 215.105 293.302 217.354C294.419 216.714 297.168 215.12 297.918 214.699C301.635 212.543 304.04 207.092 304.04 199.384C304.04 199.103 304.04 198.814 304.04 198.525L299.152 201.352C299.144 201.657 299.152 201.938 299.152 202.211Z" fill="black"/>
<path opacity="0.15" d="M269.304 181.844V183.429L225.555 158.173L226.359 157.705V157.049L269.304 181.844Z" fill="black"/>
<path opacity="0.15" d="M269.304 182.5V183.429L225.555 158.173L226.359 157.705V157.697L269.304 182.5Z" fill="black"/>
<path opacity="0.15" d="M288.328 214.707C286.67 214.663 285.053 214.181 283.642 213.309C276.512 209.193 270.709 196.948 270.709 186.014C270.709 179.634 272.638 174.87 276.004 172.926C278.347 171.567 281.12 171.739 284.033 173.418C291.155 177.533 296.957 189.818 296.957 200.751C296.957 207.123 295.028 211.895 291.662 213.832C290.647 214.412 289.497 214.713 288.328 214.707ZM279.386 172.808C278.345 172.803 277.321 173.072 276.418 173.589C273.349 175.362 271.514 180.009 271.514 186.007C271.514 196.69 277.137 208.654 284.056 212.621C286.703 214.183 289.21 214.324 291.295 213.121C294.365 211.348 296.2 206.71 296.2 200.712C296.2 190.021 290.577 178.064 283.665 174.089C282.374 173.303 280.898 172.872 279.386 172.84V172.808Z" fill="black"/>
<path opacity="0.4" d="M270.647 173.878C269.919 175.388 269.394 176.987 269.085 178.634L225.516 153.472L230.404 150.653L270.647 173.878Z" fill="white"/>
<path d="M327.274 176.323C329.554 172.004 332.162 162.305 333.459 157.408C335.302 150.457 332.319 146.084 328.929 145.905C326.813 146.233 319.839 171.59 319.839 171.59C319.058 172.207 308.46 177.588 305.056 178.939C304.447 179.169 303.775 179.169 303.166 178.939C301.533 178.345 300.417 178.455 298.816 178.298C297.558 178.173 296.926 177.728 296.762 177.994C296.613 178.323 296.594 178.697 296.708 179.04C296.822 179.383 297.062 179.67 297.379 179.845C298.068 180.246 298.802 180.566 299.565 180.797C298.197 181.213 296.77 181.405 295.34 181.368C292.061 181.297 290.881 182.719 293.427 186.053C294.989 188.131 297.574 188.787 303.345 186.795C305.001 186.217 307.25 185.101 309.351 184.343C313.677 182.781 314.817 182.594 318.113 181.477C322.916 179.853 326.258 178.244 327.274 176.323Z" fill="#FFA8A7"/>
<path d="M327.656 145.249C329.648 145.522 331.561 145.967 332.74 147.591C333.92 149.216 334.865 151.496 333.709 157.705C332.824 162.071 331.639 166.371 330.163 170.575C330.163 170.575 325.524 172.558 320.597 167.529L323.986 154.425C323.986 154.425 324.533 145.905 327.656 145.249Z" fill="#455A64"/>
</svg>
